<?xml version="1.0" encoding="UTF-8"?>
<svg id="Layer_1" data-name="Layer 1" xmlns="http://www.w3.org/2000/svg" xmlns:xlink="http://www.w3.org/1999/xlink" viewBox="0 0 3000 617.06">
  <defs>
    <style>
      .cls-1 {
        fill: #232323;
      }

      .cls-2 {
        fill: url(#linear-gradient);
      }
    </style>
    <linearGradient id="linear-gradient" x1="1191.83" y1="608.55" x2="1192.83" y2="608.55" gradientTransform="translate(-735440.04 375820.49) scale(617.07 -617.06)" gradientUnits="userSpaceOnUse">
      <stop offset="0" stop-color="#fbb040"/>
      <stop offset="1" stop-color="#f9ed32"/>
    </linearGradient>
  </defs>
  <g id="SvgjsG1163">
    <path class="cls-2" d="M560.11,308.53l4.94-4.96c69.35-69.35,69.36-182.2,0-251.56-69.36-69.36-182.21-69.36-251.57,0l-4.95,4.94-4.94-4.94c-69.36-69.36-182.21-69.36-251.57,0-69.36,69.36-69.36,182.21,0,251.56l4.94,4.96-4.94,4.94c-69.37,69.36-69.37,182.2,0,251.57,69.37,69.35,182.22,69.35,251.57,0l4.94-4.95,4.95,4.95c69.36,69.35,182.21,69.35,251.57,0,69.36-69.37,69.35-182.21,0-251.57l-4.94-4.94ZM335.38,73.92c57.28-57.28,150.48-57.28,207.75,0,57.28,57.28,57.28,150.48,0,207.75l-166.77,166.77c-12.77,12.77-15.88,27.93-.75,43.24l5.7,5.53c31.95,31.95,83.94,31.95,115.89,0s31.95-83.94,0-115.89l-4.95-4.95,12.01-12,4.95,4.95c38.58,38.57,38.58,101.34,0,139.9-38.57,38.57-101.34,38.57-139.91,0,0,0-2.43-2.04-5.71-5.35-3.02-3.06-33.07-33.59,.77-67.43l166.76-166.77c50.66-50.65,50.66-133.07,0-183.74-50.65-50.65-133.07-50.65-183.72,0l-4.96,4.94-12.01-12.01,4.95-4.96Zm139.92,401.38c-19.88,19.86-52.21,19.86-72.09,0l-4.94-4.95,72.08-72.08,4.95,4.94c19.87,19.88,19.87,52.21,0,72.09ZM73.92,73.92c57.28-57.28,150.48-57.28,207.76,0l166.75,166.75-12.01,12.03L269.67,85.94c-50.66-50.65-133.07-50.65-183.72,0-50.66,50.65-50.66,133.07,0,183.73l4.94,4.95-12.01,12.01-4.95-4.94c-57.28-57.28-57.28-150.48,0-207.76Zm324.35,72.78l4.94-4.95c19.87-19.87,52.2-19.87,72.09,0,19.86,19.87,19.86,52.2,0,72.09l-4.95,4.94-72.08-72.08ZM135.75,365.41l-15.9,15.89c-31.96,31.95-31.95,83.94,0,115.89,31.94,31.95,83.94,31.95,115.89,0l4.95-4.95c24.42-24.4-4.97-48.71-19.11-62.85l-9.21-9.28-43.76-43.76,12.01-12,58.21,58.2,4.59,4.61c42.8,42.78,12.6,73.77,9.28,77.09l-4.95,4.95c-38.57,38.59-101.34,38.57-139.92,0-38.57-38.57-38.57-101.34,0-139.92l166.77-166.76,12.01,12.03-83.04,83.02-67.83,67.84Zm10.95,32.87l72.08,72.06-4.95,4.96c-19.88,19.86-52.2,19.88-72.07,0-19.87-19.87-19.87-52.21,0-72.08l4.94-4.94Zm161.82-161.83l72.07,72.08-72.07,72.07-72.08-72.07,72.08-72.08Zm-72.78-116.59c-31.95-31.96-83.94-31.95-115.89,0-31.95,31.94-31.96,83.94,0,115.89l4.94,4.95-12.01,12.01-4.95-4.94c-38.57-38.58-38.57-101.34,0-139.92,38.58-38.57,101.34-38.57,139.92,0l166.77,166.77-12.01,12.01L235.75,119.86Zm-16.96,26.85l-72.08,72.07-4.94-4.94c-19.88-19.88-19.88-52.21,0-72.09,19.87-19.87,52.2-19.87,72.08,.01l4.95,4.94Zm324.35,396.43c-57.27,57.28-150.47,57.28-207.75,0l-6.23-5.57c-1.36-1.36-12.84-12.77-21.3-30.4-7.89,16.66-18.37,28.08-21.21,31.02l-4.95,4.95c-57.28,57.28-150.48,57.28-207.76,0s-57.28-150.48,0-207.77L240.69,168.62l12.01,12.02L85.94,347.4c-50.66,50.66-50.66,133.07,0,183.73,50.65,50.66,133.07,50.66,183.72,0l5.22-5.22c13.15-13.65,23.08-34.72,23.81-56.42,0-.64,.05-1.28,.06-1.9,.15-16.96-5.4-34.15-19.61-48.37-8.8-8.8-26.47-26.47-26.47-26.47l-2.54-2.71-47.6-47.59,12.01-12.02,66.46,66.46,5.57,5.68c9.86,9.87,16.86,19.68,21.67,29.27,4.83-9.24,11.69-18.72,21.27-28.3l.92-1.01,166.77-166.76c31.94-31.95,31.94-83.95,0-115.9-31.94-31.95-83.94-31.95-115.89,0l-4.95,4.96-12.01-12.01,4.94-4.96c38.57-38.57,101.34-38.57,139.91,0,38.58,38.58,38.58,101.34,0,139.91l-166.79,166.77-5.26,5.28c-33.38,33.38-20.27,81.17,4.14,105.57l6.07,5.75c50.65,50.66,133.07,50.66,183.72,0,50.66-50.65,50.66-133.07,0-183.73l-4.95-4.95,12.01-12.02,4.95,4.96c57.28,57.28,57.28,150.47,0,207.75Z"/>
  </g>
  <g id="SvgjsG1164">
    <path class="cls-1" d="M872.89,337.31c0,10.24,1.76,18.79,5.27,25.67,3.51,6.87,11.7,10.31,24.57,10.31,5.85,0,11.41-.29,16.67-.88v55.28c-10.53,1.17-20.33,1.76-29.4,1.76-18.72,0-33.86-1.54-45.41-4.61-11.55-3.07-20.55-8.99-26.98-17.77-6.44-8.78-9.65-21.35-9.65-37.73V235.52h-29.4v-57.48h29.4V113.54h64.94v64.5h48.26v57.48h-48.26v101.79Zm213.68-92.36c-12.58,3.07-24.13,10.31-34.66,21.72-10.53,11.41-15.8,28.08-15.8,50.02v106.62h-65.38V181.99h65.38v32.03c10.82-14.33,24.06-24.06,39.71-29.18,15.65-5.12,29.91-7.53,42.78-7.24v64.06c-8.78-.88-19.45,.22-32.03,3.29h0Zm70.64,80.51V182.86h66.25v142.6c0,17.26,4.31,29.62,12.94,37.08,8.63,7.46,19.96,11.19,34,11.19,12.29,0,23.25-4.75,32.91-14.26,9.65-9.51,14.04-25.81,13.16-48.92v-127.68h65.81v240.44h-65.81v-20.62c-7.9,8.19-17.48,14.55-28.74,19.09s-23.18,6.8-35.76,6.8c-63.18,0-94.77-34.37-94.77-103.11h0Zm275.54,65.81l34.22-45.63c10.53,7.31,22.82,13.46,36.86,18.43,14.04,4.97,27.79,7.46,41.24,7.46,9.95,0,18.21-2.05,24.79-6.14,6.58-4.1,9.87-9.21,9.87-15.36s-3.73-10.46-11.19-12.94c-7.46-2.49-14.7-4.24-21.72-5.27-7.02-1.02-11.55-1.68-13.6-1.97-17.55-2.93-32.69-6.44-45.41-10.53-12.72-4.1-24.28-11.41-34.66-21.94-10.38-10.53-15.58-25.01-15.58-43.44,0-30.42,11.04-50.75,33.13-60.99,22.08-10.24,44.24-15.36,66.47-15.36,19.01,0,36.56,2.78,52.65,8.34,16.09,5.56,32.03,14.33,47.82,26.33l-34.22,44.75c-11.41-6.73-22.67-12.14-33.78-16.23-11.12-4.1-22.67-6.14-34.66-6.14-7.31,0-14.41,1.61-21.28,4.83-6.87,3.22-10.31,7.61-10.31,13.16,0,7.02,4.75,11.99,14.26,14.92,9.51,2.93,19.96,5.12,31.37,6.58,20.48,3.51,36.86,7.17,49.14,10.97,12.29,3.8,23.18,10.9,32.69,21.28,9.51,10.38,14.26,25.08,14.26,44.1,0,25.16-8.63,44.53-25.89,58.14s-41.68,20.4-73.27,20.4c-43.88,0-81.61-12.58-113.2-37.73h0Zm345.74-53.97c0,10.24,1.76,18.79,5.27,25.67,3.51,6.87,11.7,10.31,24.57,10.31,5.85,0,11.41-.29,16.67-.88v55.28c-10.53,1.17-20.33,1.76-29.4,1.76-18.72,0-33.86-1.54-45.41-4.61-11.55-3.07-20.55-8.99-26.98-17.77-6.44-8.78-9.65-21.35-9.65-37.73V235.52h-29.4v-57.48h29.4V113.54h64.94v64.5h48.26v57.48h-48.26v101.79Zm163.66-131.19c5.56-7.61,15.14-14.41,28.74-20.4,13.6-6,28.45-8.99,44.53-8.99,24.86,0,46.44,5.56,64.72,16.67s32.25,26.25,41.9,45.41c9.65,19.16,14.48,40.44,14.48,63.84,0,23.4-4.83,44.68-14.48,63.84-9.65,19.16-23.62,34.3-41.9,45.41s-39.85,16.67-64.72,16.67c-16.67,0-31.37-2.85-44.1-8.56-12.72-5.7-22.45-12.94-29.18-21.72v102.67h-64.94V181.99h64.94v24.13h0Zm15.36,145.89c11.99,12.72,28.08,19.09,48.26,19.09s36.64-6.36,48.48-19.09c11.85-12.72,17.77-29.18,17.77-49.36s-6.07-35.83-18.21-48.7c-12.14-12.87-28.15-19.31-48.04-19.31-20.48,0-36.64,6.07-48.48,18.21-11.85,12.14-17.77,28.74-17.77,49.8s6,36.64,17.99,49.36Zm415.51,47.17c-5.56,7.61-15.14,14.41-28.74,20.4-13.6,6-28.45,8.99-44.53,8.99-24.86,0-46.44-5.56-64.72-16.67-18.28-11.12-32.25-26.25-41.9-45.41-9.65-19.16-14.48-40.44-14.48-63.84s4.83-44.68,14.48-63.84c9.65-19.16,23.62-34.3,41.9-45.41,18.28-11.12,39.85-16.67,64.72-16.67,16.67,0,31.37,2.85,44.1,8.56,12.72,5.7,22.45,12.94,29.18,21.72v-25.01h64.94v241.32h-64.94v-24.13h0Zm-15.36-145.89c-11.99-12.72-28.08-19.09-48.26-19.09s-36.64,6.36-48.48,19.09c-11.85,12.72-17.77,29.18-17.77,49.36s6.07,35.83,18.21,48.7c12.14,12.87,28.15,19.31,48.04,19.31s36.64-6.07,48.48-18.21c11.85-12.14,17.77-28.74,17.77-49.8s-6-36.64-17.99-49.36h0Zm180.77,260.4l41.68-99.16-103.55-231.66h75.91l60.99,153.57,56.16-153.57h75.91l-134.7,330.82h-72.4Zm232.1-274.22v-56.6h229.47l-131.63,183.4h118.03v57.04h-233.86l131.19-183.84h-113.2Z"/>
  </g>
</svg>